<?xml version="1.0" encoding="UTF-8" standalone="no"?>
<!-- Created with Inkscape (http://www.inkscape.org/) -->

<svg
   xmlns:dc="http://purl.org/dc/elements/1.1/"
   xmlns:cc="http://creativecommons.org/ns#"
   xmlns:rdf="http://www.w3.org/1999/02/22-rdf-syntax-ns#"
   xmlns:svg="http://www.w3.org/2000/svg"
   xmlns="http://www.w3.org/2000/svg"
   xmlns:sodipodi="http://sodipodi.sourceforge.net/DTD/sodipodi-0.dtd"
   xmlns:inkscape="http://www.inkscape.org/namespaces/inkscape"
   width="170.50801"
   height="118.20636"
   viewBox="0 0 45.113577 31.275434"
   version="1.1"
   id="svg8"
   inkscape:version="0.92.3 (2405546, 2018-03-11)"
   sodipodi:docname="js_logo.svg"
   inkscape:export-filename="C:\Users\z6fbj\Private\js_logo.png"
   inkscape:export-xdpi="900.83746"
   inkscape:export-ydpi="900.83746">
  <defs
     id="defs2">
    <inkscape:perspective
       sodipodi:type="inkscape:persp3d"
       inkscape:vp_x="0 : 148.5 : 1"
       inkscape:vp_y="0 : 1000 : 0"
       inkscape:vp_z="210 : 148.5 : 1"
       inkscape:persp3d-origin="105 : 99.000001 : 1"
       id="perspective4565" />
    <symbol
       viewBox="0 0 280 270"
       id="Heart">
      <path
         id="path4623"
         d="M 140,58 C 170,-2 250,-2 270,58 300,158 160,208 140,268 M 140,58 C 110,-2 30,-2 10,58 -20,158 120,208 140,268"
         inkscape:connector-curvature="0" />
    </symbol>
  </defs>
  <sodipodi:namedview
     id="base"
     pagecolor="#ffffff"
     bordercolor="#666666"
     borderopacity="1.0"
     inkscape:pageopacity="0"
     inkscape:pageshadow="2"
     inkscape:zoom="3.0217733"
     inkscape:cx="15.846945"
     inkscape:cy="98.863164"
     inkscape:document-units="mm"
     inkscape:current-layer="layer4"
     showgrid="true"
     inkscape:measure-start="250,635"
     inkscape:measure-end="250,670"
     inkscape:window-width="1536"
     inkscape:window-height="801"
     inkscape:window-x="-8"
     inkscape:window-y="-8"
     inkscape:window-maximized="1"
     units="px"
     fit-margin-top="10"
     fit-margin-left="10"
     fit-margin-bottom="10"
     fit-margin-right="10">
    <inkscape:grid
       type="xygrid"
       id="grid4518"
       originx="-50.203626"
       originy="-155.50581" />
  </sodipodi:namedview>
  <metadata
     id="metadata5">
    <rdf:RDF>
      <cc:Work
         rdf:about="">
        <dc:format>image/svg+xml</dc:format>
        <dc:type
           rdf:resource="http://purl.org/dc/dcmitype/StillImage" />
        <dc:title />
      </cc:Work>
    </rdf:RDF>
  </metadata>
  <g
     inkscape:label="Logo"
     inkscape:groupmode="layer"
     id="layer1"
     transform="translate(-50.203627,-110.21876)"
     style="display:inline">
    <g
       inkscape:groupmode="layer"
       id="layer4"
       inkscape:label="Heart Filling"
       style="display:none">
      <g
         style="display:inline;fill:#ff0000;fill-opacity:1;stroke:none;stroke-width:112.2427597;stroke-linecap:butt;stroke-linejoin:round;stroke-miterlimit:4;stroke-dasharray:none;stroke-opacity:1;paint-order:normal"
         transform="matrix(0.00409826,0,0,-0.00409826,69.088377,125.93721)"
         id="g870">
        <path
           style="fill:#ff0000;fill-opacity:1;stroke:none;stroke-width:112.2427597;stroke-linecap:butt;stroke-linejoin:round;stroke-miterlimit:4;stroke-dasharray:none;stroke-opacity:1;paint-order:normal"
           inkscape:connector-curvature="0"
           d="m 896,-128 q -26,0 -44,18 L 228,492 q -10,8 -27.5,26 Q 183,536 145,583.5 107,631 77,681 47,731 23.5,802 0,873 0,940 q 0,220 127,344 127,124 351,124 62,0 126.5,-21.5 64.5,-21.5 120,-58 55.5,-36.5 95.5,-68.5 40,-32 76,-68 36,36 76,68 40,32 95.5,68.5 55.5,36.5 120,58 64.5,21.5 126.5,21.5 224,0 351,-124 127,-124 127,-344 0,-221 -229,-450 L 940,-110 q -18,-18 -44,-18"
           id="path868" />
      </g>
    </g>
    <g
       inkscape:groupmode="layer"
       id="layer2"
       inkscape:label="Heart Stroke"
       style="display:none"
       transform="translate(50.203627,110.21876)">
      <g
         id="g4652"
         transform="matrix(0.00409826,0,0,-0.00409826,18.88475,15.71845)"
         style="fill:none;fill-opacity:1;stroke:#000000;stroke-width:112.2427597;stroke-linecap:butt;stroke-linejoin:round;stroke-miterlimit:4;stroke-dasharray:none;stroke-opacity:1;paint-order:normal">
        <path
           id="path4650-9"
           d="m 896,-128 q -26,0 -44,18 L 228,492 q -10,8 -27.5,26 Q 183,536 145,583.5 107,631 77,681 47,731 23.5,802 0,873 0,940 q 0,220 127,344 127,124 351,124 62,0 126.5,-21.5 64.5,-21.5 120,-58 55.5,-36.5 95.5,-68.5 40,-32 76,-68 36,36 76,68 40,32 95.5,68.5 55.5,36.5 120,58 64.5,21.5 126.5,21.5 224,0 351,-124 127,-124 127,-344 0,-221 -229,-450 L 940,-110 q -18,-18 -44,-18"
           inkscape:connector-curvature="0"
           style="fill:none;fill-opacity:1;stroke:#000000;stroke-width:112.2427597;stroke-linecap:butt;stroke-linejoin:round;stroke-miterlimit:4;stroke-dasharray:none;stroke-opacity:1;paint-order:normal" />
      </g>
    </g>
    <path
       style="fill:none;fill-rule:evenodd;stroke:#000000;stroke-width:0.5;stroke-linecap:butt;stroke-linejoin:round;stroke-miterlimit:4;stroke-dasharray:none;stroke-opacity:1;paint-order:normal"
       d="m 79.374999,119.72917 -1.322916,-1.32292 V 114.4375 H 75.40625 l -10e-7,1.32292 -2.645833,-2.64584 -6.614583,6.61459 v 9.26041 H 79.375 Z"
       id="path4522"
       inkscape:connector-curvature="0"
       sodipodi:nodetypes="cccccccccc" />
    <flowRoot
       xml:space="preserve"
       id="flowRoot4642"
       style="font-style:normal;font-weight:normal;font-size:40px;line-height:25px;font-family:sans-serif;letter-spacing:0px;word-spacing:0px;fill:#000000;fill-opacity:1;stroke:none;stroke-width:1px;stroke-linecap:butt;stroke-linejoin:miter;stroke-opacity:1"
       transform="scale(0.26458333)"><flowRegion
         id="flowRegion4644"><rect
           id="rect4646"
           width="190"
           height="45"
           x="225"
           y="487.51968" /></flowRegion><flowPara
         id="flowPara4648" /></flowRoot>  </g>
  <g
     inkscape:groupmode="layer"
     id="layer3"
     inkscape:label="Text"
     style="display:inline">
    <g
       transform="translate(-50.203627,-110.21876)"
       aria-label="Andelsbofællesskabet"
       style="font-style:normal;font-weight:normal;font-size:3.1724565px;line-height:1.98278522px;font-family:sans-serif;letter-spacing:0px;word-spacing:0px;fill:#000000;fill-opacity:1;stroke:none;stroke-width:0.07931141px;stroke-linecap:butt;stroke-linejoin:miter;stroke-opacity:1"
       id="text4596">
      <path
         d="m 55.860269,138.23648 0.909293,-2.29259 h 0.322202 l 0.895352,2.29259 h -0.351635 l -0.249397,-0.63511 h -0.971255 l -0.252495,0.63511 z m 0.649052,-0.87676 h 0.782271 l -0.390361,-0.9883 z"
         style="font-style:normal;font-variant:normal;font-weight:normal;font-stretch:normal;font-family:'Lucida Sans';-inkscape-font-specification:'Lucida Sans';stroke-width:0.07931141px"
         id="path4679"
         inkscape:connector-curvature="0" />
      <path
         d="m 58.326358,138.23648 v -1.68227 h 0.305163 v 0.31601 q 0.116179,-0.16885 0.269535,-0.26024 0.154905,-0.093 0.320653,-0.093 0.21377,0 0.346988,0.13632 0.133218,0.13477 0.133218,0.37487 v 1.20826 h -0.305163 v -1.10912 q 0,-0.17504 -0.03098,-0.23081 -0.03098,-0.0558 -0.08675,-0.0852 -0.05577,-0.031 -0.119277,-0.031 -0.11308,0 -0.24475,0.0697 -0.13012,0.0697 -0.283476,0.29742 v 1.08898 z"
         style="font-style:normal;font-variant:normal;font-weight:normal;font-stretch:normal;font-family:'Lucida Sans';-inkscape-font-specification:'Lucida Sans';stroke-width:0.07931141px"
         id="path4681"
         inkscape:connector-curvature="0" />
      <path
         d="m 61.376439,138.23648 v -0.31601 q -0.09294,0.1766 -0.233906,0.26644 -0.139415,0.0883 -0.32685,0.0883 -0.30981,0 -0.481755,-0.22771 -0.170396,-0.22926 -0.170396,-0.59949 0,-0.39965 0.192083,-0.66454 0.192082,-0.26644 0.525128,-0.26644 0.09759,0 0.185886,0.0232 0.0883,0.0232 0.156454,0.0666 0.06971,0.0418 0.153356,0.13941 v -0.95576 h 0.306712 v 2.44595 z m 0,-1.28106 q -0.158003,-0.13942 -0.250946,-0.1735 -0.09139,-0.0356 -0.198279,-0.0356 -0.223063,0 -0.331496,0.18744 -0.106885,0.18743 -0.106885,0.4833 0,0.27418 0.09449,0.43219 0.09604,0.158 0.295869,0.158 0.127022,0 0.250946,-0.0697 0.125473,-0.0697 0.246299,-0.20757 z"
         style="font-style:normal;font-variant:normal;font-weight:normal;font-stretch:normal;font-family:'Lucida Sans';-inkscape-font-specification:'Lucida Sans';stroke-width:0.07931141px"
         id="path4683"
         inkscape:connector-curvature="0" />
      <path
         d="m 63.524974,138.18226 q -0.306713,0.0929 -0.525129,0.0929 -0.39191,0 -0.616522,-0.26334 -0.224612,-0.26489 -0.224612,-0.62427 0,-0.237 0.09914,-0.45077 0.09914,-0.21377 0.258691,-0.31756 0.161102,-0.10378 0.377969,-0.10378 0.291221,0 0.464715,0.20912 0.173494,0.20912 0.173494,0.62581 l -0.0015,0.0929 h -1.0611 q 0.02479,0.22306 0.09604,0.34389 0.07126,0.12082 0.188984,0.18898 0.119277,0.0666 0.302065,0.0666 0.09294,0 0.184337,-0.0155 0.09294,-0.017 0.283477,-0.0867 z m -1.040963,-0.96815 h 0.741996 q 0,-0.2525 -0.09914,-0.36093 -0.09759,-0.10844 -0.250946,-0.10844 -0.175043,0 -0.274182,0.11773 -0.09759,0.11618 -0.117728,0.35164 z"
         style="font-style:normal;font-variant:normal;font-weight:normal;font-stretch:normal;font-family:'Lucida Sans';-inkscape-font-specification:'Lucida Sans';stroke-width:0.07931141px"
         id="path4685"
         inkscape:connector-curvature="0" />
      <path
         d="m 64.057847,138.23648 v -2.44595 h 0.305163 v 2.44595 z"
         style="font-style:normal;font-variant:normal;font-weight:normal;font-stretch:normal;font-family:'Lucida Sans';-inkscape-font-specification:'Lucida Sans';stroke-width:0.07931141px"
         id="path4687"
         inkscape:connector-curvature="0" />
      <path
         d="m 64.912923,138.17762 v -0.28038 q 0.298966,0.14871 0.520481,0.14871 0.13012,0 0.216867,-0.0713 0.0883,-0.0713 0.0883,-0.17814 0,-0.0666 -0.04337,-0.13012 -0.04337,-0.0635 -0.199827,-0.12857 l -0.178141,-0.0759 q -0.206024,-0.0852 -0.300516,-0.19828 -0.09449,-0.11154 -0.09449,-0.27419 0,-0.20292 0.14716,-0.33769 0.14716,-0.13477 0.435283,-0.13477 0.140964,0 0.348537,0.0387 l 0.06351,0.0124 v 0.25405 q -0.255594,-0.0759 -0.407401,-0.0759 -0.14716,0 -0.219965,0.0635 -0.07281,0.0635 -0.07281,0.15026 0,0.0682 0.04957,0.12238 0.04802,0.0558 0.173494,0.10998 l 0.14716,0.062 q 0.295869,0.12548 0.376419,0.24785 0.08055,0.12238 0.08055,0.26644 0,0.13786 -0.0759,0.25559 -0.07435,0.11773 -0.221514,0.18434 -0.145611,0.0666 -0.325301,0.0666 -0.209122,0 -0.508088,-0.0976 z"
         style="font-style:normal;font-variant:normal;font-weight:normal;font-stretch:normal;font-family:'Lucida Sans';-inkscape-font-specification:'Lucida Sans';stroke-width:0.07931141px"
         id="path4689"
         inkscape:connector-curvature="0" />
      <path
         d="m 66.592094,138.25507 v -2.46454 h 0.305163 v 1.07969 q 0.09449,-0.17659 0.233907,-0.26489 0.140963,-0.0883 0.328399,-0.0883 0.311359,0 0.481755,0.22926 0.170395,0.22926 0.170395,0.59794 0,0.3981 -0.193631,0.66454 -0.192083,0.26644 -0.525129,0.26644 -0.09759,0 -0.185886,-0.0232 -0.0883,-0.0232 -0.158003,-0.0666 -0.06816,-0.0434 -0.151807,-0.13941 l -0.03718,0.20912 z m 0.305163,-0.41979 q 0.156454,0.13941 0.249397,0.17504 0.09294,0.0356 0.199828,0.0356 0.224612,0 0.331497,-0.18899 0.108433,-0.18898 0.108433,-0.48175 0,-0.27263 -0.09604,-0.43219 -0.09449,-0.15955 -0.294319,-0.15955 -0.127023,0 -0.252496,0.0697 -0.123924,0.0682 -0.246299,0.20757 z"
         style="font-style:normal;font-variant:normal;font-weight:normal;font-stretch:normal;font-family:'Lucida Sans';-inkscape-font-specification:'Lucida Sans';stroke-width:0.07931141px"
         id="path4691"
         inkscape:connector-curvature="0" />
      <path
         d="m 69.256462,138.27521 q -0.240103,0 -0.418243,-0.0976 -0.176592,-0.0991 -0.280379,-0.30981 -0.103786,-0.21222 -0.103786,-0.47246 0,-0.24475 0.09449,-0.45388 0.09449,-0.21067 0.274182,-0.31755 0.181239,-0.10689 0.433734,-0.10689 0.240103,0 0.418244,0.0976 0.178141,0.0976 0.280378,0.30981 0.103787,0.21222 0.103787,0.47092 0,0.24784 -0.09604,0.45852 -0.09604,0.20912 -0.275731,0.316 -0.178141,0.10534 -0.430637,0.10534 z m 0,-0.22926 q 0.227711,0 0.353184,-0.16885 0.125473,-0.17039 0.125473,-0.48175 0,-0.31291 -0.127022,-0.48021 -0.125473,-0.16885 -0.351635,-0.16885 -0.226161,0 -0.351634,0.16885 -0.125473,0.1673 -0.125473,0.48021 0,0.31136 0.125473,0.48175 0.125473,0.16885 0.351634,0.16885 z"
         style="font-style:normal;font-variant:normal;font-weight:normal;font-stretch:normal;font-family:'Lucida Sans';-inkscape-font-specification:'Lucida Sans';stroke-width:0.07931141px"
         id="path4693"
         inkscape:connector-curvature="0" />
      <path
         d="m 70.456977,138.84836 0.410498,-2.06489 h -0.267986 l 0.04647,-0.22926 h 0.267986 l 0.01394,-0.0759 q 0.06971,-0.34544 0.339242,-0.56695 0.100689,-0.0821 0.206024,-0.12083 0.106885,-0.0387 0.250947,-0.0387 0.136316,0 0.295868,0.0465 l -0.04957,0.24321 q -0.13167,-0.0604 -0.277281,-0.0604 -0.168846,0 -0.289672,0.12857 -0.120826,0.12857 -0.176592,0.4074 l -0.0077,0.0372 h 0.458519 l -0.04647,0.22926 h -0.458519 l -0.410498,2.06489 z"
         style="font-style:italic;fill:#f21228;fill-opacity:1"
         id="path4695"
         inkscape:connector-curvature="0" />
      <path
         d="m 72.909124,137.54405 q -0.156454,0.28038 -0.29432,0.42909 -0.137865,0.14871 -0.280378,0.22616 -0.140963,0.0759 -0.261789,0.0759 -0.171945,0 -0.264888,-0.12548 -0.09139,-0.12702 -0.09139,-0.28657 0,-0.29122 0.178141,-0.63821 0.17969,-0.34854 0.427538,-0.52823 0.249397,-0.17969 0.523579,-0.17969 0.05112,0 0.120826,0.009 0.07126,0.009 0.161101,0.0279 h 0.280379 l -0.02788,0.13632 q 0.09449,-0.0728 0.168846,-0.10534 0.07435,-0.0325 0.161102,-0.0496 0.08675,-0.0186 0.175042,-0.0186 0.182788,0 0.281928,0.0883 0.100688,0.0867 0.100688,0.24785 0,0.19053 -0.122375,0.35163 -0.120826,0.15955 -0.362478,0.27109 -0.241652,0.11153 -0.585541,0.13941 0,0.21377 0.09294,0.31601 0.09449,0.10069 0.24475,0.10069 0.120826,0 0.320653,-0.062 0.199828,-0.062 0.402754,-0.19673 l -0.05886,0.29432 q -0.399656,0.20758 -0.754388,0.20758 -0.280378,0 -0.418244,-0.16575 -0.136316,-0.16575 -0.136316,-0.37642 0,-0.0651 0.01859,-0.18899 z m 0.0759,-0.37796 0.0759,-0.38262 q -0.07126,-0.0186 -0.131669,-0.0279 -0.05886,-0.009 -0.106885,-0.009 -0.178141,0 -0.354732,0.13787 -0.175043,0.13632 -0.298967,0.41205 -0.122375,0.27573 -0.122375,0.52667 0,0.0775 0.03253,0.11928 0.03408,0.0418 0.0883,0.0418 0.13012,0 0.354732,-0.23856 0.226162,-0.23855 0.463167,-0.57934 z m 0.240103,0.22151 q 0.27728,-0.0263 0.425989,-0.0898 0.148708,-0.0635 0.233906,-0.16885 0.08675,-0.10689 0.08675,-0.20448 0,-0.0573 -0.04802,-0.11308 -0.04647,-0.0558 -0.13167,-0.0558 -0.106884,0 -0.215318,0.0682 -0.08675,0.0542 -0.159552,0.14251 -0.05732,0.0697 -0.102237,0.15335 -0.04492,0.0821 -0.08984,0.26799 z"
         style="font-style:italic;fill:#f21228;fill-opacity:1"
         id="path4697"
         inkscape:connector-curvature="0" />
      <path
         d="m 74.591393,138.23648 0.486402,-2.44595 h 0.306712 l -0.487951,2.44595 z"
         style="font-style:italic;fill:#f21228;fill-opacity:1"
         id="path4699"
         inkscape:connector-curvature="0" />
      <path
         d="m 75.508433,138.23648 0.486402,-2.44595 h 0.306712 l -0.487951,2.44595 z"
         style="font-style:italic;fill:#f21228;fill-opacity:1"
         id="path4701"
         inkscape:connector-curvature="0" />
      <path
         d="m 77.714281,138.06763 q -0.399655,0.20758 -0.752838,0.20758 -0.264888,0 -0.410499,-0.15491 -0.144062,-0.1549 -0.144062,-0.42134 0,-0.28967 0.133219,-0.56076 0.133218,-0.27108 0.360929,-0.44612 0.229259,-0.17505 0.497245,-0.17505 0.185886,0 0.285025,0.0883 0.09914,0.0883 0.09914,0.24785 0,0.19053 -0.122375,0.35163 -0.120826,0.15955 -0.362478,0.27109 -0.240103,0.11153 -0.583993,0.13941 0,0.21532 0.09294,0.31601 0.09449,0.10069 0.24475,0.10069 0.119277,0 0.319104,-0.062 0.201377,-0.0635 0.402753,-0.19673 z m -0.972804,-0.68003 q 0.277281,-0.0263 0.42444,-0.0898 0.148709,-0.0635 0.233907,-0.16885 0.08675,-0.10689 0.08675,-0.20448 0,-0.062 -0.05112,-0.11463 -0.04957,-0.0542 -0.128571,-0.0542 -0.106885,0 -0.213769,0.0682 -0.08675,0.0542 -0.159552,0.14251 -0.05886,0.0697 -0.103787,0.15335 -0.04492,0.0821 -0.0883,0.26799 z"
         style="font-style:italic;fill:#f21228;fill-opacity:1"
         id="path4703"
         inkscape:connector-curvature="0" />
      <path
         d="m 78.04113,138.14664 0.05112,-0.25715 q 0.317556,0.15646 0.529776,0.15646 0.128571,0 0.201376,-0.0604 0.07281,-0.0604 0.07281,-0.15645 0,-0.0604 -0.02943,-0.10843 -0.02943,-0.0496 -0.113081,-0.13632 l -0.140964,-0.14406 q -0.178141,-0.18279 -0.224612,-0.27728 -0.04647,-0.096 -0.04647,-0.18744 0,-0.1611 0.142513,-0.30981 0.142513,-0.14871 0.436832,-0.14871 0.0883,0 0.181239,0.0139 0.09449,0.0124 0.289673,0.0836 l -0.05112,0.25715 q -0.190533,-0.0898 -0.274182,-0.10689 -0.08365,-0.0186 -0.161101,-0.0186 -0.133218,0 -0.19673,0.0589 -0.06196,0.0573 -0.06196,0.13786 0,0.0527 0.02788,0.10224 0.02788,0.0496 0.139415,0.16265 l 0.153356,0.15491 q 0.127022,0.12857 0.17969,0.22771 0.05422,0.0991 0.05422,0.21531 0,0.20913 -0.162651,0.33925 -0.16265,0.13012 -0.441479,0.13012 -0.08055,0 -0.168847,-0.0139 -0.08675,-0.0124 -0.167297,-0.0341 -0.08055,-0.0232 -0.219966,-0.0806 z"
         style="font-style:italic;fill:#f21228;fill-opacity:1"
         id="path4705"
         inkscape:connector-curvature="0" />
      <path
         d="m 79.590182,138.14664 0.05112,-0.25715 q 0.317556,0.15646 0.529776,0.15646 0.128571,0 0.201377,-0.0604 0.07281,-0.0604 0.07281,-0.15645 0,-0.0604 -0.02943,-0.10843 -0.02943,-0.0496 -0.113081,-0.13632 l -0.140963,-0.14406 q -0.178141,-0.18279 -0.224613,-0.27728 -0.04647,-0.096 -0.04647,-0.18744 0,-0.1611 0.142512,-0.30981 0.142513,-0.14871 0.436833,-0.14871 0.0883,0 0.181239,0.0139 0.09449,0.0124 0.289672,0.0836 l -0.05112,0.25715 q -0.190534,-0.0898 -0.274182,-0.10689 -0.08365,-0.0186 -0.161102,-0.0186 -0.133218,0 -0.196729,0.0589 -0.06196,0.0573 -0.06196,0.13786 0,0.0527 0.02788,0.10224 0.02788,0.0496 0.139414,0.16265 l 0.153356,0.15491 q 0.127022,0.12857 0.17969,0.22771 0.05422,0.0991 0.05422,0.21531 0,0.20913 -0.16265,0.33925 -0.162651,0.13012 -0.44148,0.13012 -0.08055,0 -0.168846,-0.0139 -0.08675,-0.0124 -0.167298,-0.0341 -0.08055,-0.0232 -0.219965,-0.0806 z"
         style="font-style:italic;fill:#f21228;fill-opacity:1"
         id="path4707"
         inkscape:connector-curvature="0" />
      <path
         d="m 81.204293,138.23648 0.486402,-2.44595 h 0.306712 l -0.308261,1.54595 0.803958,-0.78227 h 0.35783 l -0.802408,0.78692 0.628915,0.89535 h -0.348537 l -0.639758,-0.9 -0.17969,0.9 z"
         style="font-style:italic;fill:#f21228;fill-opacity:1"
         id="path4709"
         inkscape:connector-curvature="0" />
      <path
         d="m 84.043702,138.23648 0.137866,-0.68778 q -0.19518,0.3284 -0.429087,0.52823 -0.233907,0.19828 -0.436833,0.19828 -0.147159,0 -0.235455,-0.12548 -0.08675,-0.12547 -0.08675,-0.28037 0,-0.30827 0.171945,-0.64596 0.173493,-0.33769 0.42444,-0.52203 0.250946,-0.18588 0.535971,-0.18588 0.05422,0 0.117728,0.009 0.06351,0.009 0.134767,0.0294 h 0.306713 l -0.334595,1.68227 z m 0.209122,-1.0518 0.079,-0.39037 q -0.05577,-0.0294 -0.11463,-0.0434 -0.05886,-0.0155 -0.122375,-0.0155 -0.175043,0 -0.356282,0.14561 -0.181239,0.14561 -0.300515,0.42444 -0.119277,0.27883 -0.119277,0.50499 0,0.0713 0.03098,0.11928 0.03253,0.048 0.09604,0.048 0.229259,0 0.807055,-0.79311 z"
         style="font-style:italic;fill:#f21228;fill-opacity:1"
         id="path4711"
         inkscape:connector-curvature="0" />
      <path
         d="m 84.963839,138.23648 0.486402,-2.44595 h 0.305163 l -0.288123,1.45146 q 0.19518,-0.3284 0.429087,-0.52668 0.233907,-0.19828 0.438381,-0.19828 0.145611,0 0.232358,0.12548 0.0883,0.12392 0.0883,0.27883 0,0.30826 -0.173494,0.64595 -0.171944,0.33769 -0.422891,0.52358 -0.250946,0.18434 -0.534422,0.18434 -0.05422,0 -0.117728,-0.0108 -0.06351,-0.009 -0.137866,-0.0279 z m 0.430636,-0.63046 -0.07745,0.39191 q 0.05731,0.0279 0.116179,0.0434 0.05886,0.0139 0.120826,0.0139 0.173493,0 0.354732,-0.14561 0.182788,-0.14561 0.302065,-0.42444 0.119277,-0.27883 0.119277,-0.50499 0,-0.0713 -0.03253,-0.11928 -0.03098,-0.048 -0.09294,-0.048 -0.232358,0 -0.810154,0.79312 z"
         style="font-style:italic;fill:#f21228;fill-opacity:1"
         id="path4713"
         inkscape:connector-curvature="0" />
      <path
         d="m 88.185866,138.06763 q -0.399655,0.20758 -0.752839,0.20758 -0.264888,0 -0.410499,-0.15491 -0.144061,-0.1549 -0.144061,-0.42134 0,-0.28967 0.133218,-0.56076 0.133218,-0.27108 0.360929,-0.44612 0.22926,-0.17505 0.497245,-0.17505 0.185886,0 0.285026,0.0883 0.09914,0.0883 0.09914,0.24785 0,0.19053 -0.122375,0.35163 -0.120826,0.15955 -0.362478,0.27109 -0.240103,0.11153 -0.583992,0.13941 0,0.21532 0.09294,0.31601 0.09449,0.10069 0.24475,0.10069 0.119277,0 0.319104,-0.062 0.201377,-0.0635 0.402754,-0.19673 z m -0.972804,-0.68003 q 0.27728,-0.0263 0.42444,-0.0898 0.148709,-0.0635 0.233906,-0.16885 0.08675,-0.10689 0.08675,-0.20448 0,-0.062 -0.05112,-0.11463 -0.04957,-0.0542 -0.128572,-0.0542 -0.106884,0 -0.213769,0.0682 -0.08675,0.0542 -0.159552,0.14251 -0.05886,0.0697 -0.103786,0.15335 -0.04492,0.0821 -0.0883,0.26799 z"
         style="font-style:italic;fill:#f21228;fill-opacity:1"
         id="path4715"
         inkscape:connector-curvature="0" />
      <path
         d="m 89.321321,138.24423 q -0.103786,0.031 -0.192082,0.031 -0.206024,0 -0.317555,-0.10069 -0.109983,-0.10069 -0.109983,-0.25559 0,-0.0991 0.02788,-0.24321 l 0.178141,-0.89225 h -0.267986 l 0.04492,-0.22926 h 0.267986 l 0.06041,-0.30516 0.314458,-0.0387 -0.06816,0.34389 h 0.401205 l -0.04647,0.22926 h -0.401204 l -0.182788,0.92014 q -0.02633,0.13012 -0.02633,0.17194 0,0.0666 0.04182,0.11928 0.04337,0.0511 0.151807,0.0511 0.07281,0 0.168847,-0.031 z"
         style="font-style:italic;fill:#f21228;fill-opacity:1"
         id="path4717"
         inkscape:connector-curvature="0" />
    </g>
    <g
       transform="translate(-50.203627,-110.21876)"
       aria-label="Jystrup Savværk"
       style="font-style:normal;font-variant:normal;font-weight:normal;font-stretch:normal;font-size:5.14576769px;line-height:3.21610475px;font-family:'Lucida Sans';-inkscape-font-specification:'Lucida Sans';letter-spacing:0px;word-spacing:0px;fill:#000000;fill-opacity:1;stroke:none;stroke-width:0.12864418px;stroke-linecap:butt;stroke-linejoin:miter;stroke-opacity:1"
       id="text4600">
      <path
         d="m 52.84946,134.94055 v -0.46734 q 0.30151,0.098 0.537693,0.098 0.160805,0 0.276384,-0.0603 0.115578,-0.0578 0.185931,-0.19598 0.07287,-0.13568 0.07287,-0.5176 v -3.26635 h 0.527642 v 3.24877 q 0,0.6407 -0.30151,0.92714 -0.298997,0.28643 -0.84674,0.28643 -0.175881,0 -0.452265,-0.0528 z"
         style="font-style:normal;font-variant:normal;font-weight:normal;font-stretch:normal;font-family:'Lucida Sans';-inkscape-font-specification:'Lucida Sans';stroke-width:0.12864418px"
         id="path4650"
         inkscape:connector-curvature="0" />
      <path
         d="m 55.563049,135.24206 0.442214,-0.99247 -1.055284,-2.72867 h 0.53518 l 0.781412,2.0553 0.834178,-2.0553 h 0.46734 l -1.489961,3.72114 z"
         style="font-style:normal;font-variant:normal;font-weight:normal;font-stretch:normal;font-family:'Lucida Sans';-inkscape-font-specification:'Lucida Sans';stroke-width:0.12864418px"
         id="path4652"
         inkscape:connector-curvature="0" />
      <path
         d="m 57.997741,134.15411 v -0.45478 q 0.484928,0.24121 0.844227,0.24121 0.211057,0 0.351762,-0.11558 0.143217,-0.11558 0.143217,-0.28895 0,-0.10804 -0.07035,-0.21105 -0.07035,-0.10302 -0.324123,-0.20855 l -0.288946,-0.12311 q -0.334174,-0.13819 -0.487441,-0.32161 -0.153268,-0.18091 -0.153268,-0.44473 0,-0.32915 0.238695,-0.54774 0.238696,-0.2186 0.706036,-0.2186 0.228645,0 0.565331,0.0628 l 0.103016,0.0201 v 0.41206 q -0.414576,-0.12312 -0.660809,-0.12312 -0.238696,0 -0.356787,0.10302 -0.118091,0.10302 -0.118091,0.24372 0,0.11055 0.0804,0.19849 0.07789,0.0905 0.281409,0.1784 l 0.238696,0.1005 q 0.479903,0.20352 0.610557,0.40201 0.130654,0.1985 0.130654,0.43217 0,0.22362 -0.123116,0.41457 -0.120604,0.19096 -0.359299,0.299 -0.236183,0.10804 -0.527643,0.10804 -0.339198,0 -0.824126,-0.15829 z"
         style="font-style:normal;font-variant:normal;font-weight:normal;font-stretch:normal;font-family:'Lucida Sans';-inkscape-font-specification:'Lucida Sans';stroke-width:0.12864418px"
         id="path4654"
         inkscape:connector-curvature="0" />
      <path
         d="m 61.937469,134.24959 q -0.228645,0.0628 -0.396988,0.0628 -0.366837,0 -0.582919,-0.21105 -0.216082,-0.21357 -0.216082,-0.60554 v -1.60302 h -0.341711 v -0.37187 h 0.341711 v -0.49497 l 0.494979,-0.0477 v 0.54271 h 0.713573 v 0.37187 h -0.713573 v 1.51257 q 0,0.28643 0.110553,0.41206 0.110554,0.12312 0.351762,0.12312 0.09799,0 0.238695,-0.0327 z"
         style="font-style:normal;font-variant:normal;font-weight:normal;font-stretch:normal;font-family:'Lucida Sans';-inkscape-font-specification:'Lucida Sans';stroke-width:0.12864418px"
         id="path4656"
         inkscape:connector-curvature="0" />
      <path
         d="m 62.651043,134.24959 v -2.72867 h 0.494978 v 0.51257 q 0.140705,-0.27387 0.364325,-0.42211 0.226132,-0.15076 0.489953,-0.15076 0.07538,0 0.158293,0.0126 v 0.46231 q -0.125629,-0.0427 -0.226133,-0.0427 -0.23367,0 -0.432164,0.1407 -0.195981,0.13819 -0.354274,0.41709 v 1.79901 z"
         style="font-style:normal;font-variant:normal;font-weight:normal;font-stretch:normal;font-family:'Lucida Sans';-inkscape-font-specification:'Lucida Sans';stroke-width:0.12864418px"
         id="path4658"
         inkscape:connector-curvature="0" />
      <path
         d="m 66.467654,134.24959 v -0.51257 q -0.190956,0.27639 -0.439702,0.42714 -0.248746,0.14824 -0.517592,0.14824 -0.344224,0 -0.562818,-0.21859 -0.216082,-0.22111 -0.216082,-0.61307 v -1.95982 h 0.494978 v 1.79901 q 0,0.28392 0.05025,0.37438 0.05025,0.0905 0.140705,0.1407 0.09045,0.0502 0.195981,0.0502 0.180906,0 0.391963,-0.11306 0.213569,-0.11307 0.462315,-0.48242 v -1.76886 h 0.494978 v 2.72867 z"
         style="font-style:normal;font-variant:normal;font-weight:normal;font-stretch:normal;font-family:'Lucida Sans';-inkscape-font-specification:'Lucida Sans';stroke-width:0.12864418px"
         id="path4660"
         inkscape:connector-curvature="0" />
      <path
         d="m 67.957616,135.24206 v -3.72114 h 0.494978 v 0.51257 q 0.153268,-0.28643 0.3794,-0.42965 0.228645,-0.14322 0.532667,-0.14322 0.505029,0 0.781413,0.37186 0.276384,0.37187 0.276384,0.96986 0,0.38945 -0.128141,0.74121 -0.128142,0.35176 -0.399501,0.56031 -0.268846,0.20854 -0.610557,0.20854 -0.13568,0 -0.359299,-0.0402 -0.221108,-0.0402 -0.472366,-0.33166 v 1.30152 z m 0.494978,-1.64323 q 0.253771,0.22613 0.404526,0.28392 0.150755,0.0578 0.324123,0.0578 0.364324,0 0.537692,-0.30653 0.175881,-0.30654 0.175881,-0.78142 0,-0.44221 -0.15578,-0.70101 -0.153267,-0.25879 -0.47739,-0.25879 -0.206032,0 -0.409551,0.11306 -0.201007,0.11056 -0.399501,0.33669 z"
         style="font-style:normal;font-variant:normal;font-weight:normal;font-stretch:normal;font-family:'Lucida Sans';-inkscape-font-specification:'Lucida Sans';stroke-width:0.12864418px"
         id="path4662"
         inkscape:connector-curvature="0" />
      <path
         d="m 72.578254,134.17924 v -0.52262 q 0.44724,0.20603 0.653271,0.24874 0.206032,0.0427 0.381913,0.0427 0.319098,0 0.502516,-0.17337 0.185931,-0.17588 0.185931,-0.4196 0,-0.18342 -0.09548,-0.3392 -0.09799,-0.15327 -0.487441,-0.37437 l -0.256283,-0.14825 q -0.512567,-0.29146 -0.688448,-0.53266 -0.17588,-0.24121 -0.17588,-0.53518 0,-0.26383 0.138192,-0.49498 0.140704,-0.23116 0.374374,-0.36181 0.236183,-0.13066 0.59297,-0.13066 0.429651,0 0.907042,0.14322 v 0.48241 q -0.414576,-0.16331 -0.570356,-0.19598 -0.153268,-0.0352 -0.306535,-0.0352 -0.321611,0 -0.477391,0.16834 -0.153267,0.16834 -0.153267,0.34422 0,0.12061 0.07286,0.24624 0.07286,0.12311 0.195981,0.21357 0.123116,0.0879 0.339198,0.21105 l 0.266334,0.15076 q 0.517592,0.29397 0.69096,0.53769 0.173368,0.24623 0.173368,0.56533 0,0.43468 -0.33166,0.75378 -0.329149,0.31909 -0.97237,0.31909 -0.198494,0 -0.384425,-0.0276 -0.185931,-0.0251 -0.575381,-0.13568 z"
         style="font-style:normal;font-variant:normal;font-weight:normal;font-stretch:normal;font-family:'Lucida Sans';-inkscape-font-specification:'Lucida Sans';stroke-width:0.12864418px"
         id="path4664"
         inkscape:connector-curvature="0" />
      <path
         d="m 77.00291,133.90285 q -0.221107,0.20352 -0.437189,0.30654 -0.21357,0.10301 -0.419602,0.10301 -0.288946,0 -0.537692,-0.19095 -0.248746,-0.19096 -0.248746,-0.5578 0,-0.40201 0.346737,-0.66332 0.346736,-0.26382 1.108048,-0.26382 h 0.115579 v -0.32915 q 0,-0.19598 -0.05276,-0.28392 -0.05276,-0.0905 -0.165831,-0.1407 -0.110553,-0.0503 -0.276384,-0.0503 -0.384425,0 -0.839202,0.24121 v -0.40955 q 0.500004,-0.20352 0.942218,-0.20352 0.241208,0 0.442215,0.0779 0.203519,0.0754 0.324123,0.24121 0.120604,0.16332 0.120604,0.52764 v 1.23619 q 0,0.20603 0.03266,0.2789 0.03266,0.0703 0.09045,0.10804 0.0603,0.0377 0.138192,0.0377 0.03266,0 0.09548,-0.01 l 0.03518,0.27387 q -0.168343,0.0804 -0.371862,0.0804 -0.135679,0 -0.261308,-0.0879 -0.125629,-0.0879 -0.180906,-0.32161 z m -0.07286,-0.26884 v -0.70604 l -0.158293,-0.005 q -0.38945,0 -0.653271,0.15076 -0.263821,0.15075 -0.263821,0.40955 0,0.17839 0.128142,0.30151 0.130654,0.12312 0.304022,0.12312 0.15578,0 0.316585,-0.0678 0.160806,-0.0704 0.326636,-0.20603 z"
         style="font-style:normal;font-variant:normal;font-weight:normal;font-stretch:normal;font-family:'Lucida Sans';-inkscape-font-specification:'Lucida Sans';stroke-width:0.12864418px"
         id="path4666"
         inkscape:connector-curvature="0" />
      <path
         d="m 79.005437,134.24959 -1.015083,-2.72867 h 0.494979 l 0.793975,2.12314 0.83669,-2.12314 h 0.462315 l -1.077897,2.72867 z"
         style="font-style:normal;font-variant:normal;font-weight:normal;font-stretch:normal;font-family:'Lucida Sans';-inkscape-font-specification:'Lucida Sans';stroke-width:0.12864418px"
         id="path4668"
         inkscape:connector-curvature="0" />
      <path
         d="m 81.668775,134.24959 -1.015083,-2.72867 h 0.494978 l 0.793976,2.12314 0.83669,-2.12314 h 0.462315 l -1.077898,2.72867 z"
         style="font-style:normal;font-variant:normal;font-weight:normal;font-stretch:normal;font-family:'Lucida Sans';-inkscape-font-specification:'Lucida Sans';stroke-width:0.12864418px"
         id="path4670"
         inkscape:connector-curvature="0" />
      <path
         d="m 85.30448,133.76466 q -0.238696,0.27387 -0.484929,0.41206 -0.246233,0.13568 -0.502516,0.13568 -0.288947,0 -0.537692,-0.19095 -0.248746,-0.19096 -0.248746,-0.5578 0,-0.40201 0.346736,-0.66332 0.346737,-0.26382 1.108049,-0.26382 h 0.115579 v -0.32915 q 0,-0.19598 -0.05276,-0.28392 -0.05276,-0.0905 -0.16583,-0.1407 -0.110554,-0.0503 -0.276384,-0.0503 -0.384425,0 -0.839202,0.24121 v -0.40955 q 0.500003,-0.20352 0.94473,-0.20352 0.241208,0 0.432164,0.0754 0.190957,0.0754 0.331661,0.22864 0.123117,-0.12311 0.228645,-0.1809 0.108041,-0.0603 0.246233,-0.0905 0.138192,-0.0327 0.286435,-0.0327 0.366837,0 0.610557,0.18845 0.24372,0.18844 0.341711,0.50251 0.09799,0.31407 0.09799,0.81157 h -1.688455 q 0.02513,0.35678 0.128141,0.54774 0.105529,0.18844 0.296485,0.30905 0.190956,0.1206 0.492466,0.1206 0.150755,0 0.31156,-0.0251 0.160806,-0.0276 0.459803,-0.15326 v 0.39447 q -0.484928,0.15578 -0.902017,0.15578 -0.339199,0 -0.620608,-0.1407 -0.281409,-0.14071 -0.459802,-0.40704 z m -0.203519,-0.13065 v -0.70604 l -0.158293,-0.005 q -0.38945,0 -0.653271,0.15076 -0.263821,0.15075 -0.263821,0.40955 0,0.17839 0.128141,0.30151 0.130654,0.12312 0.304023,0.12312 0.15578,0 0.316585,-0.0678 0.160805,-0.0704 0.326636,-0.20603 z m 0.512566,-1.01258 h 1.145738 q 0,-0.45226 -0.158293,-0.6206 -0.158293,-0.17086 -0.3794,-0.17086 -0.261308,0 -0.419601,0.20101 -0.158293,0.19849 -0.188444,0.59045 z"
         style="font-style:normal;font-variant:normal;font-weight:normal;font-stretch:normal;font-family:'Lucida Sans';-inkscape-font-specification:'Lucida Sans';stroke-width:0.12864418px"
         id="path4672"
         inkscape:connector-curvature="0" />
      <path
         d="m 88.148722,134.24959 v -2.72867 h 0.494979 v 0.51257 q 0.140705,-0.27387 0.364324,-0.42211 0.226133,-0.15076 0.489954,-0.15076 0.07538,0 0.158293,0.0126 v 0.46231 q -0.12563,-0.0427 -0.226133,-0.0427 -0.23367,0 -0.432164,0.1407 -0.195981,0.13819 -0.354274,0.41709 v 1.79901 z"
         style="font-style:normal;font-variant:normal;font-weight:normal;font-stretch:normal;font-family:'Lucida Sans';-inkscape-font-specification:'Lucida Sans';stroke-width:0.12864418px"
         id="path4674"
         inkscape:connector-curvature="0" />
      <path
         d="m 90.259291,134.24959 v -3.96737 h 0.494979 v 2.56283 l 1.155788,-1.32413 h 0.532667 l -1.103023,1.27388 1.331668,1.45479 h -0.633171 l -1.283929,-1.39951 v 1.39951 z"
         style="font-style:normal;font-variant:normal;font-weight:normal;font-stretch:normal;font-family:'Lucida Sans';-inkscape-font-specification:'Lucida Sans';stroke-width:0.12864418px"
         id="path4676"
         inkscape:connector-curvature="0" />
    </g>
  </g>
</svg>
